<svg width="15" height="15" viewBox="0 0 15 15" fill="none" xmlns="http://www.w3.org/2000/svg">
<path d="M13.7315 11.4561C13.7315 11.6811 13.6815 11.9124 13.5752 12.1374C13.469 12.3624 13.3315 12.5749 13.1502 12.7749C12.844 13.1124 12.5065 13.3561 12.1252 13.5124C11.7502 13.6686 11.344 13.7499 10.9065 13.7499C10.269 13.7499 9.58774 13.5999 8.86899 13.2936C8.15024 12.9874 7.43149 12.5749 6.71899 12.0561C6.00024 11.5311 5.31899 10.9499 4.66899 10.3061C4.02524 9.65613 3.44399 8.97488 2.92524 8.26238C2.41274 7.54988 2.00024 6.83738 1.70024 6.13113C1.40024 5.41863 1.25024 4.73738 1.25024 4.08738C1.25024 3.66238 1.32524 3.25613 1.47524 2.88113C1.62524 2.49988 1.86274 2.14988 2.19399 1.83738C2.59399 1.44363 3.03149 1.24988 3.49399 1.24988C3.66899 1.24988 3.84399 1.28738 4.00024 1.36238C4.16274 1.43738 4.30649 1.54988 4.41899 1.71238L5.86899 3.75613C5.98149 3.91238 6.06274 4.05613 6.11899 4.19363C6.17524 4.32488 6.20649 4.45613 6.20649 4.57488C6.20649 4.72488 6.16274 4.87488 6.07524 5.01863C5.99399 5.16238 5.87524 5.31238 5.72524 5.46238L5.25024 5.95613C5.18149 6.02488 5.15024 6.10613 5.15024 6.20613C5.15024 6.25613 5.15649 6.29988 5.16899 6.34988C5.18774 6.39988 5.20649 6.43738 5.21899 6.47488C5.33149 6.68113 5.52524 6.94988 5.80024 7.27488C6.08149 7.59988 6.38149 7.93113 6.70649 8.26238C7.04399 8.59363 7.36899 8.89988 7.70024 9.18113C8.02524 9.45613 8.29399 9.64363 8.50649 9.75613C8.53774 9.76863 8.57524 9.78738 8.61899 9.80613C8.66899 9.82488 8.71899 9.83113 8.77524 9.83113C8.88149 9.83113 8.96274 9.79363 9.03149 9.72488L9.50649 9.25613C9.66274 9.09988 9.81274 8.98113 9.95649 8.90613C10.1002 8.81863 10.244 8.77488 10.4002 8.77488C10.519 8.77488 10.644 8.79988 10.7815 8.85613C10.919 8.91238 11.0627 8.99363 11.219 9.09988L13.2877 10.5686C13.4502 10.6811 13.5627 10.8124 13.6315 10.9686C13.694 11.1249 13.7315 11.2811 13.7315 11.4561Z" stroke="white" stroke-width="1.5" stroke-miterlimit="10"/>
<path d="M11.5625 5.62512C11.5625 5.25012 11.2688 4.67512 10.8313 4.20637C10.4313 3.77512 9.9 3.43762 9.375 3.43762" stroke="white" stroke-width="1.5" stroke-linecap="round" stroke-linejoin="round"/>
<path d="M13.75 5.62488C13.75 3.20613 11.7938 1.24988 9.375 1.24988" stroke="white" stroke-width="1.5" stroke-linecap="round" stroke-linejoin="round"/>
</svg>
