<svg width="49" height="49" viewBox="0 0 49 49" fill="none" xmlns="http://www.w3.org/2000/svg">
<path opacity="0.2" d="M17.7005 23.8904C19.2889 27.1377 21.9211 29.758 25.1756 31.3315C25.4137 31.4444 25.6771 31.4933 25.9398 31.4734C26.2026 31.4535 26.4556 31.3655 26.6741 31.2182L31.466 28.0228C31.678 27.8814 31.9218 27.7952 32.1755 27.7719C32.4291 27.7486 32.6846 27.789 32.9187 27.8893L41.8836 31.7314C42.1882 31.8608 42.4424 32.0856 42.6081 32.372C42.7737 32.6585 42.8418 32.991 42.8021 33.3194C42.5187 35.5367 41.4369 37.5747 39.7591 39.0517C38.0814 40.5288 35.9228 41.3437 33.6875 41.3438C26.7836 41.3438 20.1624 38.6012 15.2806 33.7194C10.3988 28.8376 7.65625 22.2164 7.65625 15.3125C7.65637 13.0772 8.47124 10.9186 9.9483 9.24088C11.4254 7.56313 13.4633 6.4813 15.6806 6.19795C16.0091 6.15819 16.3416 6.22627 16.628 6.39192C16.9144 6.55757 17.1392 6.81182 17.2686 7.11636L21.1141 16.0891C21.2135 16.3212 21.2541 16.5742 21.232 16.8258C21.21 17.0773 21.1261 17.3195 20.9879 17.5308L17.8036 22.3963C17.6586 22.6152 17.5729 22.8679 17.5549 23.1298C17.5368 23.3917 17.587 23.6538 17.7005 23.8904Z" fill="white"/>
<path d="M17.7005 23.8904C19.2889 27.1377 21.9211 29.758 25.1756 31.3315C25.4137 31.4444 25.6771 31.4933 25.9398 31.4734C26.2026 31.4535 26.4556 31.3655 26.6741 31.2182L31.466 28.0228C31.678 27.8814 31.9218 27.7952 32.1755 27.7719C32.4291 27.7486 32.6846 27.789 32.9187 27.8893L41.8836 31.7314C42.1882 31.8608 42.4424 32.0856 42.6081 32.372C42.7737 32.6585 42.8418 32.991 42.8021 33.3194C42.5187 35.5367 41.4369 37.5747 39.7591 39.0517C38.0814 40.5288 35.9228 41.3437 33.6875 41.3438C26.7836 41.3438 20.1624 38.6012 15.2806 33.7194C10.3988 28.8376 7.65625 22.2164 7.65625 15.3125C7.65637 13.0772 8.47124 10.9186 9.9483 9.24088C11.4254 7.56313 13.4633 6.4813 15.6806 6.19795C16.0091 6.15819 16.3416 6.22627 16.628 6.39192C16.9144 6.55757 17.1392 6.81182 17.2686 7.11636L21.1141 16.0891C21.2135 16.3212 21.2541 16.5742 21.232 16.8258C21.21 17.0773 21.1261 17.3195 20.9879 17.5308L17.8036 22.3963C17.6586 22.6152 17.5729 22.8679 17.5549 23.1298C17.5368 23.3917 17.587 23.6538 17.7005 23.8904V23.8904Z" stroke="white" stroke-width="1.5" stroke-linecap="round" stroke-linejoin="round"/>
<path d="M32.1562 9.1875H39.8125V16.8438" stroke="white" stroke-width="1.5" stroke-linecap="round" stroke-linejoin="round"/>
<path d="M30.625 18.375L39.8125 9.1875" stroke="white" stroke-width="1.5" stroke-linecap="round" stroke-linejoin="round"/>
</svg>
