<svg width="17" height="17" viewBox="0 0 17 17" fill="none" xmlns="http://www.w3.org/2000/svg">
<path opacity="0.2" d="M13.8125 4.25H11.6871L10.6246 2.65625H6.37461L5.31211 4.25H3.1875C2.90571 4.25 2.63546 4.36194 2.4362 4.5612C2.23694 4.76046 2.125 5.03071 2.125 5.3125V12.75C2.125 13.0318 2.23694 13.302 2.4362 13.5013C2.63546 13.7006 2.90571 13.8125 3.1875 13.8125H13.8125C14.0943 13.8125 14.3645 13.7006 14.5638 13.5013C14.7631 13.302 14.875 13.0318 14.875 12.75V5.3125C14.875 5.03071 14.7631 4.76046 14.5638 4.5612C14.3645 4.36194 14.0943 4.25 13.8125 4.25ZM8.5 11.1562C8.02718 11.1562 7.56498 11.016 7.17184 10.7534C6.7787 10.4907 6.47229 10.1173 6.29135 9.68048C6.11041 9.24365 6.06307 8.76297 6.15531 8.29924C6.24755 7.8355 6.47524 7.40953 6.80957 7.0752C7.14391 6.74086 7.56988 6.51318 8.03361 6.42093C8.49735 6.32869 8.97802 6.37603 9.41485 6.55698C9.85168 6.73792 10.225 7.04433 10.4877 7.43747C10.7504 7.8306 10.8906 8.2928 10.8906 8.76562C10.8906 9.39966 10.6388 10.0077 10.1904 10.4561C9.7421 10.9044 9.13403 11.1562 8.5 11.1562Z" fill="#39B4E5"/>
<path d="M13.8125 13.8125H3.1875C2.90571 13.8125 2.63546 13.7006 2.4362 13.5013C2.23694 13.302 2.125 13.0318 2.125 12.75V5.3125C2.125 5.03071 2.23694 4.76046 2.4362 4.5612C2.63546 4.36194 2.90571 4.25 3.1875 4.25H5.31211L6.37461 2.65625H10.6246L11.6871 4.25H13.8125C14.0943 4.25 14.3645 4.36194 14.5638 4.5612C14.7631 4.76046 14.875 5.03071 14.875 5.3125V12.75C14.875 13.0318 14.7631 13.302 14.5638 13.5013C14.3645 13.7006 14.0943 13.8125 13.8125 13.8125Z" stroke="#39B4E5" stroke-width="1.5" stroke-linecap="round" stroke-linejoin="round"/>
<path d="M8.5 11.1562C9.82031 11.1562 10.8906 10.0859 10.8906 8.76562C10.8906 7.44532 9.82031 6.375 8.5 6.375C7.17969 6.375 6.10938 7.44532 6.10938 8.76562C6.10938 10.0859 7.17969 11.1562 8.5 11.1562Z" stroke="#39B4E5" stroke-width="1.5" stroke-linecap="round" stroke-linejoin="round"/>
</svg>
