<svg width="20" height="20" viewBox="0 0 20 20" fill="none" xmlns="http://www.w3.org/2000/svg">
<path d="M9.55769 5.58059L11.1045 4.03379C11.4236 3.71435 11.8026 3.46091 12.2197 3.28796C12.6368 3.11502 13.0839 3.02595 13.5355 3.02584C13.987 3.02574 14.4342 3.1146 14.8514 3.28735C15.2686 3.46011 15.6477 3.71336 15.967 4.03266C16.2863 4.35196 16.5395 4.73103 16.7123 5.14824C16.885 5.56544 16.9739 6.01259 16.9738 6.46414C16.9737 6.91569 16.8846 7.3628 16.7117 7.77992C16.5387 8.19704 16.2853 8.576 15.9658 8.89515L13.7561 11.1049C13.4369 11.4241 13.058 11.6773 12.6409 11.85C12.2239 12.0228 11.7769 12.1117 11.3255 12.1117C10.874 12.1117 10.427 12.0228 10.01 11.85C9.59292 11.6773 9.21398 11.4241 8.89478 11.1049" stroke="#061C3D" stroke-width="1.5" stroke-linecap="round" stroke-linejoin="round"/>
<path d="M10.4415 14.4194L8.8947 15.9662C8.57556 16.2857 8.1966 16.5391 7.77947 16.712C7.36235 16.885 6.91525 16.9741 6.46369 16.9742C6.01214 16.9743 5.56499 16.8854 5.14779 16.7127C4.73059 16.5399 4.35151 16.2866 4.03221 15.9673C3.71291 15.6481 3.45966 15.269 3.2869 14.8518C3.11415 14.4346 3.02529 13.9874 3.02539 13.5359C3.0255 13.0843 3.11457 12.6372 3.28751 12.2201C3.46046 11.803 3.7139 11.424 4.03334 11.1049L6.24305 8.89515C6.56225 8.57595 6.9412 8.32274 7.35826 8.14999C7.77532 7.97724 8.22231 7.88833 8.67373 7.88833C9.12515 7.88833 9.57215 7.97724 9.98921 8.14999C10.4063 8.32274 10.7852 8.57595 11.1044 8.89515" stroke="#061C3D" stroke-width="1.5" stroke-linecap="round" stroke-linejoin="round"/>
</svg>
