<svg width="17" height="17" viewBox="0 0 17 17" fill="none" xmlns="http://www.w3.org/2000/svg">
<path opacity="0.2" d="M8.49999 1.59375H8.5C9.20448 1.59375 9.88011 1.8736 10.3783 2.37175C10.8764 2.86989 11.1562 3.54552 11.1562 4.25V8.5C11.1562 9.20448 10.8764 9.88011 10.3783 10.3783C9.88011 10.8764 9.20448 11.1562 8.5 11.1562H8.49999C8.15117 11.1562 7.80576 11.0875 7.48349 10.9541C7.16122 10.8206 6.8684 10.6249 6.62175 10.3783C6.37509 10.1316 6.17943 9.83878 6.04594 9.51651C5.91246 9.19424 5.84375 8.84883 5.84375 8.50001V4.24999C5.84375 3.54551 6.1236 2.86989 6.62175 2.37175C7.11989 1.8736 7.79551 1.59375 8.49999 1.59375Z" fill="#39B4E5"/>
<path d="M8.49999 1.59375H8.5C9.20448 1.59375 9.88011 1.8736 10.3783 2.37175C10.8764 2.86989 11.1562 3.54552 11.1562 4.25V8.5C11.1562 9.20448 10.8764 9.88011 10.3783 10.3783C9.88011 10.8764 9.20448 11.1562 8.5 11.1562H8.49999C8.15117 11.1563 7.80576 11.0875 7.48349 10.9541C7.16122 10.8206 6.8684 10.6249 6.62175 10.3783C6.37509 10.1316 6.17943 9.83878 6.04594 9.51651C5.91246 9.19424 5.84375 8.84883 5.84375 8.50001V4.24999C5.84375 3.54551 6.1236 2.86989 6.62175 2.37175C7.11989 1.8736 7.79551 1.59375 8.49999 1.59375V1.59375Z" stroke="#39B4E5" stroke-width="1.5" stroke-linecap="round" stroke-linejoin="round"/>
<path d="M8.5 13.2812V15.4062" stroke="#39B4E5" stroke-width="1.5" stroke-linecap="round" stroke-linejoin="round"/>
<path d="M13.2522 9.03126C13.1214 10.2001 12.5644 11.2797 11.6878 12.0638C10.8111 12.8478 9.67623 13.2812 8.50011 13.2812C7.32399 13.2812 6.18912 12.8478 5.31246 12.0637C4.43579 11.2797 3.87883 10.2001 3.74805 9.03125" stroke="#39B4E5" stroke-width="1.5" stroke-linecap="round" stroke-linejoin="round"/>
</svg>
