<svg width="32" height="32" viewBox="0 0 32 32" fill="none" xmlns="http://www.w3.org/2000/svg">
<path opacity="0.2" d="M18.5447 12.8338L18.1211 11.7917C17.9338 11.331 17.5712 10.9636 17.113 10.7702C16.6549 10.5769 16.1387 10.5735 15.678 10.7608C15.2173 10.9481 14.8499 11.3107 14.6566 11.7688C14.4633 12.227 14.4599 12.7432 14.6471 13.2039L12.3876 7.64557C12.2004 7.18489 11.8378 6.81748 11.3796 6.62416C10.9214 6.43083 10.4052 6.42743 9.94456 6.6147C9.48389 6.80197 9.11647 7.16457 8.92315 7.62273C8.72983 8.0809 8.72642 8.59709 8.91369 9.05777L13.195 19.5895L9.94976 17.0652C9.75543 16.9138 9.53316 16.8021 9.29566 16.7367C9.05816 16.6712 8.81008 16.6532 8.56561 16.6836C8.32114 16.714 8.08506 16.7924 7.87088 16.9141C7.65669 17.0358 7.46859 17.1986 7.31733 17.393C7.16607 17.5875 7.05462 17.8098 6.98934 18.0474C6.92406 18.2849 6.90623 18.533 6.93688 18.7775C6.96753 19.0219 7.04605 19.2579 7.16796 19.472C7.28986 19.6861 7.45276 19.8741 7.64735 20.0252C12.9018 24.843 15.4702 26.2277 19.3074 24.6678C20.2198 24.2969 21.0502 23.7499 21.7512 23.0581C22.4523 22.3663 23.0101 21.5431 23.393 20.6357C23.7759 19.7282 23.9764 18.7543 23.9828 17.7694C23.9893 16.7845 23.8018 15.808 23.4309 14.8956L22.0187 11.4216C21.8314 10.961 21.4688 10.5935 21.0106 10.4002C20.5525 10.2069 20.0363 10.2035 19.5756 10.3908C19.1149 10.578 18.7475 10.9406 18.5542 11.3988C18.3609 11.857 18.3575 12.3732 18.5447 12.8338Z" fill="white"/>
<path d="M14.7884 13.5512L12.3876 7.64557C12.2004 7.18489 11.8378 6.81748 11.3796 6.62416C10.9214 6.43083 10.4052 6.42743 9.94456 6.6147C9.48389 6.80197 9.11647 7.16457 8.92315 7.62273C8.72983 8.0809 8.72642 8.59709 8.91369 9.05777L13.195 19.5895L9.94976 17.0652C9.75543 16.9138 9.53316 16.8021 9.29566 16.7367C9.05816 16.6712 8.81008 16.6532 8.56561 16.6836C8.32114 16.714 8.08506 16.7924 7.87088 16.9141C7.65669 17.0358 7.46859 17.1986 7.31733 17.393C7.16607 17.5875 7.05462 17.8098 6.98934 18.0474C6.92406 18.2849 6.90623 18.533 6.93688 18.7775C6.96753 19.0219 7.04605 19.2579 7.16796 19.472C7.28986 19.6861 7.45276 19.8741 7.64735 20.0252C12.9018 24.843 15.4702 26.2277 19.3074 24.6678C20.2198 24.2969 21.0502 23.7499 21.7512 23.0581C22.4523 22.3663 23.0101 21.5431 23.393 20.6357C23.7759 19.7282 23.9764 18.7543 23.9828 17.7694C23.9893 16.7845 23.8018 15.808 23.4309 14.8956L22.0187 11.4216C21.8314 10.961 21.4688 10.5935 21.0106 10.4002C20.5525 10.2069 20.0363 10.2035 19.5756 10.3908C19.1149 10.578 18.7475 10.9406 18.5542 11.3988C18.3609 11.857 18.3575 12.3732 18.5447 12.8338" stroke="white" stroke-width="1.5" stroke-linecap="round" stroke-linejoin="round"/>
<path d="M18.5446 12.8338L18.1209 11.7917C17.9337 11.331 17.5711 10.9636 17.1129 10.7703C16.6548 10.5769 16.1386 10.5735 15.6779 10.7608C15.2172 10.9481 14.8498 11.3107 14.6565 11.7688C14.4632 12.227 14.4597 12.7432 14.647 13.2039L14.7882 13.5513" stroke="white" stroke-width="1.5" stroke-linecap="round" stroke-linejoin="round"/>
</svg>
