<svg width="20" height="20" viewBox="0 0 20 20" fill="none" xmlns="http://www.w3.org/2000/svg">
<path d="M6.0415 5.83335H13.9582V4.16669C13.9582 2.50002 13.3332 1.66669 11.4582 1.66669H8.5415C6.6665 1.66669 6.0415 2.50002 6.0415 4.16669V5.83335Z" stroke="white" stroke-width="1.5" stroke-miterlimit="10" stroke-linecap="round" stroke-linejoin="round"/>
<path d="M13.3332 12.5V15.8333C13.3332 17.5 12.4998 18.3333 10.8332 18.3333H9.1665C7.49984 18.3333 6.6665 17.5 6.6665 15.8333V12.5H13.3332Z" stroke="white" stroke-width="1.5" stroke-miterlimit="10" stroke-linecap="round" stroke-linejoin="round"/>
<path d="M17.5 8.33331V12.5C17.5 14.1666 16.6667 15 15 15H13.3333V12.5H6.66667V15H5C3.33333 15 2.5 14.1666 2.5 12.5V8.33331C2.5 6.66665 3.33333 5.83331 5 5.83331H15C16.6667 5.83331 17.5 6.66665 17.5 8.33331Z" stroke="white" stroke-width="1.5" stroke-miterlimit="10" stroke-linecap="round" stroke-linejoin="round"/>
<path d="M14.1668 12.5H13.1585H5.8335" stroke="white" stroke-width="1.5" stroke-miterlimit="10" stroke-linecap="round" stroke-linejoin="round"/>
<path d="M5.8335 9.16669H8.3335" stroke="white" stroke-width="1.5" stroke-miterlimit="10" stroke-linecap="round" stroke-linejoin="round"/>
</svg>
