<svg width="20" height="21" viewBox="0 0 20 21" fill="none" xmlns="http://www.w3.org/2000/svg">
<path d="M6.97945 10.6594L13.7701 16.9131C13.8486 16.9855 13.9438 17.0352 14.0463 17.0575C14.1488 17.0798 14.255 17.0738 14.3546 17.0402C14.4542 17.0066 14.5438 16.9465 14.6145 16.8657C14.6852 16.785 14.7347 16.6864 14.7581 16.5797L17.5987 3.60773C17.6233 3.49557 17.6181 3.37853 17.5838 3.26921C17.5495 3.15989 17.4874 3.06244 17.404 2.98737C17.3207 2.91229 17.2194 2.86243 17.111 2.84316C17.0026 2.82389 16.8912 2.83594 16.7889 2.87801L2.85102 8.60829C2.72955 8.65823 2.6268 8.74799 2.55814 8.86414C2.48948 8.98029 2.45861 9.11659 2.47014 9.25263C2.48167 9.38868 2.53498 9.51716 2.62211 9.61885C2.70923 9.72054 2.82548 9.78997 2.95345 9.81676L6.97945 10.6594Z" stroke="#797979" stroke-width="1.5" stroke-linecap="round" stroke-linejoin="round"/>
<path d="M6.97949 10.6594L17.2588 2.89017" stroke="#797979" stroke-width="1.5" stroke-linecap="round" stroke-linejoin="round"/>
<path d="M10.3709 13.7827L8.01087 16.2525C7.92638 16.3409 7.81872 16.4011 7.70153 16.4255C7.58433 16.4499 7.46285 16.4374 7.35246 16.3896C7.24206 16.3417 7.1477 16.2607 7.08131 16.1567C7.01493 16.0527 6.97949 15.9305 6.97949 15.8054V10.6594" stroke="#797979" stroke-width="1.5" stroke-linecap="round" stroke-linejoin="round"/>
</svg>
