<svg width="20" height="21" viewBox="0 0 20 21" fill="none" xmlns="http://www.w3.org/2000/svg">
<path d="M15.7085 3.16135H3.62516C3.29149 3.16135 3.021 3.44442 3.021 3.79361V16.439C3.021 16.7882 3.29149 17.0712 3.62516 17.0712H15.7085C16.0422 17.0712 16.3127 16.7882 16.3127 16.439V3.79361C16.3127 3.44442 16.0422 3.16135 15.7085 3.16135Z" stroke="#797979" stroke-width="1.5" stroke-linecap="round" stroke-linejoin="round"/>
<path d="M9.0625 8.85184V13.91" stroke="#797979" stroke-width="1.5" stroke-linecap="round" stroke-linejoin="round"/>
<path d="M6.646 8.85184V13.91" stroke="#797979" stroke-width="1.5" stroke-linecap="round" stroke-linejoin="round"/>
<path d="M9.0625 11.0648C9.0625 10.4779 9.28529 9.915 9.68185 9.49999C10.0784 9.08499 10.6163 8.85184 11.1771 8.85184C11.7379 8.85184 12.2758 9.08499 12.6723 9.49999C13.0689 9.915 13.2917 10.4779 13.2917 11.0648V13.91" stroke="#797979" stroke-width="1.5" stroke-linecap="round" stroke-linejoin="round"/>
<path d="M6.646 7.27107C7.1465 7.27107 7.55225 6.84646 7.55225 6.32267C7.55225 5.79888 7.1465 5.37427 6.646 5.37427C6.14549 5.37427 5.73975 5.79888 5.73975 6.32267C5.73975 6.84646 6.14549 7.27107 6.646 7.27107Z" fill="#797979"/>
</svg>
