<svg width="20" height="21" viewBox="0 0 20 21" fill="none" xmlns="http://www.w3.org/2000/svg">
<path d="M4.29207 15.8067C4.29207 15.8067 7.31291 15.1744 7.91707 13.2776C7.91707 13.2776 3.08374 11.3808 4.29207 4.42588C4.29207 4.42588 6.70874 7.58722 10.3337 8.21948V6.95518C10.3338 6.22883 10.5728 5.52465 11.0106 4.96103C11.4484 4.39741 12.0583 4.00873 12.7378 3.86032C13.4172 3.71191 14.1247 3.81283 14.7414 4.14611C15.3581 4.47939 15.8463 5.02471 16.124 5.69038L18.7921 5.69041L16.3754 8.21948C16.3754 12.6454 13.3546 17.0712 7.91707 17.0712C5.50041 17.0712 4.29207 15.8067 4.29207 15.8067Z" stroke="#797979" stroke-width="1.5" stroke-linecap="round" stroke-linejoin="round"/>
</svg>
