<svg width="20" height="21" viewBox="0 0 20 21" fill="none" xmlns="http://www.w3.org/2000/svg">
<path d="M3.43114 13.9888C2.53038 12.3997 2.21493 10.5211 2.54401 8.70584C2.8731 6.89056 3.8241 5.26345 5.21842 4.13003C6.61275 2.99661 8.35449 2.43485 10.1166 2.55025C11.8787 2.66564 13.5399 3.45025 14.7883 4.75674C16.0368 6.06322 16.7865 7.80172 16.8968 9.64577C17.0071 11.4898 16.4703 13.3126 15.3872 14.7718C14.3042 16.2309 12.7494 17.2262 11.0148 17.5706C9.28021 17.915 7.48514 17.5849 5.96666 16.6422L5.96668 16.6421L3.46267 17.3908C3.35907 17.4218 3.24944 17.4232 3.14514 17.395C3.04084 17.3667 2.94566 17.3097 2.86948 17.23C2.79329 17.1503 2.73886 17.0507 2.71184 16.9415C2.68481 16.8324 2.68617 16.7176 2.71577 16.6092L3.4312 13.9887L3.43114 13.9888Z" stroke="#797979" stroke-width="1.5" stroke-linecap="round" stroke-linejoin="round"/>
<path d="M11.4882 14.5421C10.6934 14.5433 9.90614 14.3804 9.17158 14.0626C8.43702 13.7448 7.76959 13.2785 7.20755 12.6903C6.64551 12.1021 6.19989 11.4036 5.89624 10.6349C5.59259 9.86617 5.43686 9.0423 5.43799 8.21048C5.43979 7.62498 5.66343 7.06413 6.05985 6.65096C6.45626 6.23779 6.99309 6.00603 7.55257 6.00653V6.00653C7.64434 6.00653 7.73448 6.03192 7.81385 6.08012C7.89322 6.12832 7.959 6.19763 8.00453 6.28101L8.88745 7.89798C8.94069 7.99549 8.96816 8.10609 8.96701 8.2184C8.96587 8.3307 8.93617 8.44066 8.88095 8.53697L8.17188 9.77372C8.53668 10.6209 9.18491 11.2993 9.99448 11.6811V11.6811L11.1763 10.939C11.2683 10.8813 11.3734 10.8502 11.4807 10.849C11.588 10.8478 11.6937 10.8765 11.7869 10.9323L13.332 11.8562C13.4116 11.9039 13.4779 11.9727 13.5239 12.0558C13.57 12.1388 13.5942 12.2332 13.5942 12.3292V12.3292C13.5926 12.914 13.3705 13.4746 12.9762 13.889C12.5818 14.3034 12.0471 14.5381 11.4882 14.5421V14.5421Z" stroke="#797979" stroke-width="1.5" stroke-linecap="round" stroke-linejoin="round"/>
</svg>
