<svg width="20" height="20" viewBox="0 0 20 20" fill="none" xmlns="http://www.w3.org/2000/svg">
<path d="M6.87502 10.5369L13.8998 16.7187C13.9811 16.7902 14.0795 16.8394 14.1856 16.8615C14.2916 16.8835 14.4015 16.8776 14.5045 16.8444C14.6076 16.8111 14.7002 16.7517 14.7734 16.6719C14.8465 16.5921 14.8977 16.4947 14.9219 16.3891L17.8605 3.56627C17.8859 3.45541 17.8806 3.33971 17.8451 3.23165C17.8096 3.12359 17.7453 3.02726 17.6591 2.95304C17.5729 2.87883 17.4681 2.82954 17.3559 2.81049C17.2438 2.79145 17.1286 2.80336 17.0227 2.84495L2.60423 8.50936C2.47857 8.55873 2.37227 8.64746 2.30125 8.76227C2.23022 8.87709 2.19828 9.01182 2.21021 9.1463C2.22214 9.28078 2.27729 9.40778 2.36742 9.50831C2.45755 9.60883 2.5778 9.67746 2.71019 9.70394L6.87502 10.5369Z" stroke="#343434" stroke-width="1.5" stroke-linecap="round" stroke-linejoin="round"/>
<path d="M6.875 10.5369L17.5088 2.85696" stroke="#343434" stroke-width="1.5" stroke-linecap="round" stroke-linejoin="round"/>
<path d="M10.3834 13.6243L7.94194 16.0657C7.85453 16.1531 7.74317 16.2126 7.62193 16.2367C7.50069 16.2609 7.37503 16.2485 7.26082 16.2012C7.14662 16.1539 7.04901 16.0738 6.98033 15.971C6.91166 15.8682 6.875 15.7474 6.875 15.6238V10.5369" stroke="#343434" stroke-width="1.5" stroke-linecap="round" stroke-linejoin="round"/>
</svg>
