<svg width="22" height="22" viewBox="0 0 22 22" fill="none" xmlns="http://www.w3.org/2000/svg">
<path d="M4.12546 17.1875C4.12546 17.1875 7.56296 16.5 8.25046 14.4375C8.25046 14.4375 2.75046 12.375 4.12546 4.8125C4.12546 4.8125 6.87546 8.25 11.0005 8.9375V7.56275C11.0005 6.77295 11.2725 6.00726 11.7707 5.3944C12.2689 4.78155 12.9629 4.35891 13.7361 4.19754C14.5092 4.03616 15.3143 4.1459 16.0161 4.50829C16.7178 4.87069 17.2734 5.46364 17.5894 6.18747L20.6255 6.1875L17.8755 8.9375C17.8755 13.75 14.438 18.5625 8.25046 18.5625C5.50046 18.5625 4.12546 17.1875 4.12546 17.1875Z" stroke="#343434" stroke-width="1.5" stroke-linecap="round" stroke-linejoin="round"/>
</svg>
